<?xml version="1.0" encoding="UTF-8" standalone="no"?>
<!-- Created with Inkscape (http://www.inkscape.org/) -->

<svg
   width="299.99982mm"
   height="39.532269mm"
   viewBox="0 0 299.99981 39.532268"
   version="1.1"
   id="svg1"
   inkscape:export-filename="sAvidexus.svg"
   inkscape:export-xdpi="96"
   inkscape:export-ydpi="96"
   xmlns:inkscape="http://www.inkscape.org/namespaces/inkscape"
   xmlns:sodipodi="http://sodipodi.sourceforge.net/DTD/sodipodi-0.dtd"
   xmlns="http://www.w3.org/2000/svg"
   xmlns:svg="http://www.w3.org/2000/svg">
  <sodipodi:namedview
     id="namedview1"
     pagecolor="#ffffff"
     bordercolor="#000000"
     borderopacity="0.25"
     inkscape:showpageshadow="2"
     inkscape:pageopacity="0.0"
     inkscape:pagecheckerboard="0"
     inkscape:deskcolor="#d1d1d1"
     inkscape:document-units="mm" />
  <defs
     id="defs1" />
  <g
     inkscape:label="Layer 1"
     inkscape:groupmode="layer"
     id="layer1"
     transform="translate(23.812499,-35.45416)">
    <g
       id="g9"
       transform="matrix(0.26458333,0,0,0.26458333,-23.812499,35.454051)">
      <path
         id="path1"
         d="m 517.602,110.188 c 0.105,-0.149 10.785,-12.899 23.738,-28.336 12.949,-15.438 23.547,-28.188 23.547,-28.332 0,-0.215 -40.969,-48.676 -42.375,-50.129 -0.395,-0.403 -0.192,-0.426 3.734,-0.414 l 4.152,0.011 15.04,17.567 c 14.507,16.949 23.488,27.519 24.382,28.699 0.418,0.555 0.528,0.437 5.7,-5.981 10.367,-12.875 32.015,-39.242 32.843,-40.011 0.25,-0.231 1.364,-0.293 4.317,-0.242 l 3.98,0.066 -20.961,25.473 c -11.531,14.007 -20.965,25.582 -20.965,25.722 -0.007,0.137 10.61,12.778 23.579,28.086 12.968,15.313 23.582,27.895 23.582,27.961 0,0.07 -1.868,0.125 -4.153,0.125 h -4.152 l -4.676,-5.543 C 606.34,101.859 597.098,90.918 588.375,80.594 579.648,70.273 571.883,61.059 571.109,60.121 c -0.769,-0.937 -1.48,-1.793 -1.582,-1.898 -0.101,-0.106 -1.359,1.211 -2.793,2.925 -3.593,4.293 -36.699,44.27 -38.961,47.043 l -1.832,2.25 -4.261,0.004 c -3.02,0.008 -4.211,-0.07 -4.078,-0.257 z"
         style="fill:#000000;fill-opacity:1;fill-rule:nonzero;stroke:none"
         transform="scale(1.3333333)" />
      <path
         id="path2"
         d="M 421.344,56.148 V 2.406 h 78.941 v 5.606 h -70.949 v 43.14 h 66.477 v 5.606 h -66.477 v 47.527 h 74.465 v 5.606 h -82.457 z"
         style="fill:#000000;fill-opacity:1;fill-rule:nonzero;stroke:none"
         transform="scale(1.3333333)" />
      <path
         id="path3"
         d="M 239.664,56.148 V 2.406 h 7.34 v 107.485 h -7.34 z"
         style="fill:#000000;fill-opacity:1;fill-rule:nonzero;stroke:none"
         transform="scale(1.3333333)" />
      <path
         id="path4"
         d="M 160.734,109.344 C 160.594,109.043 148.762,85.105 134.441,56.148 120.121,27.191 108.289,3.25 108.145,2.945 l -0.254,-0.554 4.14,0.066 4.141,0.07 8.781,17.547 c 19.777,39.531 30.391,61.196 36.5,74.524 1.582,3.453 2.906,6.25 2.945,6.215 0.04,-0.032 1.684,-3.625 3.657,-7.981 3.929,-8.687 20.035,-42.156 34.422,-71.539 l 9.191,-18.766 4.445,-0.066 4.446,-0.07 -1.262,2.507 c -0.692,1.375 -12.656,25.563 -26.59,53.75 l -25.332,51.243 h -3.191 c -3.039,0 -3.204,-0.024 -3.45,-0.547 z"
         style="fill:#000000;fill-opacity:1;fill-rule:nonzero;stroke:none"
         transform="scale(1.3333333)" />
      <path
         id="path5"
         d="m 799.086,111.926 c -7.332,-0.594 -12.012,-1.336 -17.324,-2.746 -8.528,-2.266 -15.02,-5.266 -20.61,-9.52 l -1.98,-1.512 v -4.242 c 0,-4.722 0.133,-4.992 1.637,-3.328 3.679,4.07 10.242,8.305 16.859,10.867 9.234,3.582 17.988,4.973 29.715,4.723 8.316,-0.176 13.535,-0.934 18.941,-2.742 8.438,-2.828 13.629,-7.891 15.477,-15.106 0.687,-2.699 0.707,-7.757 0.031,-9.871 -1.758,-5.504 -6.348,-9.418 -15.301,-13.043 -4.804,-1.945 -8.441,-3.047 -25.535,-7.738 -8.558,-2.344 -16.879,-4.75 -18.492,-5.34 -11.574,-4.25 -17.996,-10.258 -20.141,-18.848 -0.48,-1.937 -0.476,-7.578 0.008,-9.871 2.172,-10.222 10.031,-17.332 23.18,-20.964 13.375,-3.7 29.726,-3.508 44.207,0.515 3.793,1.055 10.519,3.867 12.914,5.403 l 2.055,1.316 0.082,3.816 c 0.062,2.969 -0.008,3.821 -0.293,3.821 -0.207,0 -1.301,-0.668 -2.43,-1.485 C 831.402,8.316 816.078,4.605 799.969,5.832 c -18.43,1.402 -28.86,8.414 -30.215,20.309 -0.168,1.472 -0.164,3.234 0.008,4.617 0.89,7.211 5.179,11.758 14.765,15.648 4.36,1.766 6.231,2.313 25.973,7.582 7.809,2.086 15.602,4.258 17.316,4.828 12.727,4.25 19.418,9.622 21.774,17.485 0.848,2.824 1.058,7.844 0.469,11.047 -2.676,14.496 -16.11,22.984 -38.762,24.488 -3.527,0.234 -9.852,0.281 -12.211,0.09 z"
         style="fill:#000000;fill-opacity:1;fill-rule:nonzero;stroke:none"
         transform="scale(1.3333333)" />
      <path
         id="path6"
         d="m 684.137,111.926 c -10.813,-0.797 -19.133,-3.324 -25.707,-7.817 -7.926,-5.418 -12.469,-13.254 -14.043,-24.218 -0.805,-5.629 -0.949,-12.45 -0.953,-44.887 L 643.43,2.406 h 6.398 l 0.129,34.184 c 0.082,22.281 0.231,35.117 0.422,36.863 0.859,7.766 2.324,13.258 4.672,17.551 1.469,2.68 3.004,4.57 5.34,6.582 5.406,4.656 12.754,7.434 22.257,8.422 3.973,0.414 12.52,0.16 15.86,-0.469 7.687,-1.445 13.289,-4.07 18.289,-8.566 6.195,-5.567 8.605,-10.551 10.379,-21.446 0.406,-2.511 0.465,-6.457 0.547,-37.964 l 0.093,-35.157 h 6.696 l -0.004,31.746 c -0.008,17.461 -0.121,33.985 -0.262,36.723 -0.66,12.777 -2.824,19.602 -8.269,26.082 -5.891,7.012 -14.391,11.82 -24.598,13.918 -4.777,0.984 -12.094,1.43 -17.246,1.051 z"
         style="fill:#000000;fill-opacity:1;fill-rule:nonzero;stroke:none"
         transform="scale(1.3333333)" />
      <path
         id="path7"
         d="M 284.57,56.148 V 2.406 h 18.86 c 23.574,0.004 31.687,0.336 41.3,1.707 14.18,2.02 24.758,6.41 33.032,13.703 7.461,6.579 12.09,15.375 14.14,26.879 0.813,4.571 0.739,16.032 -0.136,20.961 -2.825,15.871 -10.625,27.028 -24.157,34.535 -8.82,4.899 -18.691,7.598 -32.261,8.829 -7.434,0.675 -14.942,0.871 -33.094,0.875 H 284.57 Z m 47.547,47.563 c 10.656,-1.09 18.758,-2.84 25.18,-5.441 15.234,-6.165 24.008,-17.551 26.535,-34.442 0.586,-3.902 0.492,-14.523 -0.16,-18.039 C 381.418,33.629 376.508,25.25 367.871,18.832 360.254,13.172 350.77,10.336 333.586,8.586 330.398,8.258 325.941,8.16 310.766,8.074 l -18.86,-0.105 v 96.359 l 18.125,-0.105 c 14.516,-0.086 18.914,-0.188 22.086,-0.512 z"
         style="fill:#000000;fill-opacity:1;fill-rule:nonzero;stroke:none"
         transform="scale(1.3333333)" />
      <path
         id="path8"
         d="m 59.82,2.941 c 0.141,0.301 11.973,24.239 26.297,53.196 14.321,28.953 26.153,52.894 26.293,53.199 l 0.258,0.555 -8.281,-0.133 -8.782,-17.551 C 75.828,52.68 65.215,31.012 59.105,17.684 c -1.582,-3.45 -2.91,-6.246 -2.949,-6.215 -0.035,0.035 -1.679,3.629 -3.652,7.984 C 48.57,28.137 32.465,61.609 18.078,90.988 L 8.891,109.758 0,109.891 1.258,107.387 c 0.695,-1.379 12.66,-25.567 26.59,-53.75 L 53.18,2.391 h 3.195 c 3.039,0 3.203,0.027 3.445,0.55 z"
         style="fill:#000000;fill-opacity:1;fill-rule:nonzero;stroke:none"
         transform="scale(1.3333333)" />
    </g>
  </g>
</svg>
